<svg preserveAspectRatio="none" width="100%" height="100%" overflow="visible" style="display: block;" viewBox="0 0 6.06179 6.57016" fill="none" xmlns="http://www.w3.org/2000/svg">
<g id="Ellipse 53">
<circle cx="3.02834" cy="3.46803" r="2.5" fill="var(--fill-0, #B5733A)"/>
<path d="M5.5505 4.58396L5.0506 4.59389L5.5505 4.58396ZM5.56158 5.14193L6.06148 5.132L5.56158 5.14193ZM3.92483 6.00484L4.01582 6.49649L3.92483 6.00484ZM2.88563 6.04996L2.82831 6.54666L2.88563 6.04996ZM1.90577 5.93689L1.84846 6.4336L1.90577 5.93689ZM1.03904 4.99113L0.578663 5.18621L1.03904 4.99113ZM0.610593 3.6261L0.113512 3.68004L0.610593 3.6261ZM2.19237 0.651304L1.89448 1.05288L2.19237 0.651304ZM3.82621 1.94993L4.20643 1.62523L3.82621 1.94993ZM4.22992 2.42268L3.8497 2.74738L4.22992 2.42268ZM4.35743 3.06354L4.84919 3.15393L4.35743 3.06354ZM4.32026 3.26579L3.8285 3.1754L4.32026 3.26579ZM5.5505 4.58396L5.0506 4.59389L5.06168 5.15185L5.56158 5.14193L6.06148 5.132L6.0504 4.57403L5.5505 4.58396ZM5.56158 5.14193L5.06168 5.15185C5.06272 5.20442 5.05679 5.23624 5.05197 5.25285C5.04962 5.26093 5.04752 5.26547 5.0465 5.26746C5.04596 5.2685 5.04559 5.2691 5.04542 5.26936C5.04525 5.26961 5.04517 5.26971 5.04517 5.26972C5.04516 5.26973 5.04508 5.26983 5.04485 5.27005C5.04462 5.27028 5.0441 5.27077 5.04318 5.27152C5.0414 5.27294 5.03733 5.27594 5.02982 5.2799C5.0144 5.28803 4.98427 5.30029 4.9324 5.30989L5.02339 5.80154L5.11437 6.29319C5.37704 6.24458 5.63466 6.12903 5.81998 5.90191C6.00534 5.67472 6.06679 5.39913 6.06148 5.132L5.56158 5.14193ZM5.02339 5.80154L4.9324 5.30989L4.38312 5.41154L4.47411 5.90319L4.56509 6.39484L5.11437 6.29319L5.02339 5.80154ZM4.47411 5.90319L4.38312 5.41154L3.83385 5.51319L3.92483 6.00484L4.01582 6.49649L4.56509 6.39484L4.47411 5.90319ZM3.92483 6.00484L3.83385 5.51319C3.51019 5.57308 3.21409 5.58454 2.94294 5.55325L2.88563 6.04996L2.82831 6.54666C3.2104 6.59075 3.60711 6.57213 4.01582 6.49649L3.92483 6.00484ZM2.88563 6.04996L2.94294 5.55325L2.45301 5.49672L2.3957 5.99343L2.33838 6.49013L2.82831 6.54666L2.88563 6.04996ZM2.3957 5.99343L2.45301 5.49672L1.96308 5.44019L1.90577 5.93689L1.84846 6.4336L2.33838 6.49013L2.3957 5.99343ZM1.90577 5.93689L1.96308 5.44019C1.81059 5.42259 1.74133 5.36696 1.68781 5.24067L1.22744 5.43575L0.767065 5.63083C0.964754 6.09736 1.34771 6.37582 1.84846 6.4336L1.90577 5.93689ZM1.22744 5.43575L1.68781 5.24067L1.49941 4.79605L1.03904 4.99113L0.578663 5.18621L0.767065 5.63083L1.22744 5.43575ZM1.03904 4.99113L1.49941 4.79605L1.31101 4.35144L0.850635 4.54652L0.390261 4.7416L0.578663 5.18621L1.03904 4.99113ZM0.850635 4.54652L1.31101 4.35144C1.2043 4.09962 1.13678 3.84033 1.10767 3.57215L0.610593 3.6261L0.113512 3.68004C0.153259 4.04627 0.245765 4.4006 0.390261 4.7416L0.850635 4.54652ZM0.610593 3.6261L1.10767 3.57215L1.05604 3.09634L0.558954 3.15028L0.0618729 3.20423L0.113512 3.68004L0.610593 3.6261ZM0.558954 3.15028L1.05604 3.09634L1.0044 2.62053L0.507315 2.67447L0.0102336 2.72842L0.0618729 3.20423L0.558954 3.15028ZM0.507315 2.67447L1.0044 2.62053C0.984864 2.44056 1.02904 2.23846 1.18738 1.9994L0.770517 1.7233L0.353658 1.44721C0.0922029 1.84196 -0.0390873 2.27397 0.0102336 2.72842L0.507315 2.67447ZM0.770517 1.7233L1.18738 1.9994L1.50222 1.52404L1.08536 1.24794L0.6685 0.971847L0.353658 1.44721L0.770517 1.7233ZM1.08536 1.24794L1.50222 1.52404L1.81706 1.04868L1.4002 0.772582L0.983342 0.496487L0.6685 0.971847L1.08536 1.24794ZM1.4002 0.772582L1.81706 1.04868C1.84656 1.00414 1.86557 0.988407 1.86878 0.985984C1.86989 0.985151 1.86683 0.987613 1.85951 0.990817C1.85196 0.994118 1.84228 0.997148 1.83133 0.998823C1.80749 1.00247 1.79603 0.997182 1.80462 1.00007C1.81566 1.00378 1.8455 1.01654 1.89448 1.05288L2.19237 0.651304L2.49026 0.24973C2.27546 0.0903915 1.99606 -0.0380473 1.68 0.0103403C1.35785 0.0596602 1.13243 0.271395 0.983342 0.496487L1.4002 0.772582ZM2.19237 0.651304L1.89448 1.05288L2.37181 1.40696L2.6697 1.00539L2.96758 0.603812L2.49026 0.24973L2.19237 0.651304ZM2.6697 1.00539L2.37181 1.40696L2.84913 1.76104L3.14702 1.35947L3.44491 0.957895L2.96758 0.603812L2.6697 1.00539ZM3.14702 1.35947L2.84913 1.76104C3.15921 1.99106 3.34891 2.16096 3.44598 2.27463L3.82621 1.94993L4.20643 1.62523C4.03436 1.42373 3.77127 1.19999 3.44491 0.957895L3.14702 1.35947ZM3.82621 1.94993L3.44598 2.27463L3.64784 2.511L4.02806 2.1863L4.40829 1.86161L4.20643 1.62523L3.82621 1.94993ZM4.02806 2.1863L3.64784 2.511L3.8497 2.74738L4.22992 2.42268L4.61015 2.09798L4.40829 1.86161L4.02806 2.1863ZM4.22992 2.42268L3.8497 2.74738C3.89086 2.79559 3.90235 2.82208 3.90393 2.82628C3.90438 2.82747 3.90226 2.8222 3.9011 2.81132C3.89989 2.80004 3.90006 2.78603 3.90284 2.77091L4.39461 2.8613L4.88637 2.95169C4.94994 2.6058 4.79152 2.31038 4.61015 2.09798L4.22992 2.42268ZM4.39461 2.8613L3.90284 2.77091L3.86567 2.97316L4.35743 3.06354L4.84919 3.15393L4.88637 2.95169L4.39461 2.8613ZM4.35743 3.06354L3.86567 2.97316L3.8285 3.1754L4.32026 3.26579L4.81202 3.35618L4.84919 3.15393L4.35743 3.06354ZM4.32026 3.26579L3.8285 3.1754C3.8114 3.2684 3.80755 3.38618 3.84854 3.51066C3.8915 3.64112 3.97298 3.74576 4.07337 3.81983C4.25126 3.95106 4.46088 3.96803 4.5944 3.96803V3.46803V2.96803C4.56743 2.96803 4.56164 2.96564 4.57052 2.96764C4.57841 2.96942 4.61836 2.9792 4.66704 3.01512C4.72174 3.05547 4.77205 3.11798 4.79837 3.19788C4.82271 3.2718 4.81672 3.33059 4.81202 3.35618L4.32026 3.26579ZM4.5944 3.46803V3.96803H4.90571V3.46803V2.96803H4.5944V3.46803ZM4.90571 3.46803V3.96803H5.21703V3.46803V2.96803H4.90571V3.46803ZM5.21703 3.46803V3.96803C5.19177 3.96803 5.14727 3.96154 5.09971 3.93346C5.05298 3.90587 5.02899 3.87262 5.02035 3.85767C5.01328 3.84542 5.01853 3.8494 5.02538 3.88269C5.03204 3.91506 5.0381 3.96477 5.03952 4.03592L5.53942 4.026L6.03932 4.01607C6.03502 3.79936 6.00273 3.55904 5.88621 3.35738C5.74699 3.11643 5.50694 2.96803 5.21703 2.96803V3.46803ZM5.53942 4.026L5.03952 4.03592L5.0506 4.59389L5.5505 4.58396L6.0504 4.57403L6.03932 4.01607L5.53942 4.026Z" fill="var(--stroke-0, #670F0F)"/>
</g>
</svg>
