<svg preserveAspectRatio="none" width="100%" height="100%" overflow="visible" style="display: block;" viewBox="0 0 23.2714 23.179" fill="none" xmlns="http://www.w3.org/2000/svg">
<g id="Ellipse 51">
<circle cx="12.0385" cy="11.3971" r="10.5" fill="var(--fill-0, #C20003)"/>
<path d="M22.7621 12.7992L22.2683 12.878L22.7621 12.7992ZM22.3186 13.5779L22.5761 14.0065L22.3186 13.5779ZM21.2824 14.2005L21.0249 13.772L21.2824 14.2005ZM20.9807 15.088L20.5126 15.2637L20.9807 15.088ZM21.4134 16.2403L21.8815 16.0645L21.4134 16.2403ZM21.1076 16.9959L20.945 16.5231L21.1076 16.9959ZM20.5856 17.1755L20.7482 17.6483L20.5856 17.1755ZM20.0635 17.3551L19.9009 16.8822L20.0635 17.3551ZM19.2561 17.837L18.8924 17.4939L19.2561 17.837ZM18.9708 18.1394L19.3345 18.4825L18.9708 18.1394ZM18.6856 18.4419L19.0493 18.785L18.6856 18.4419ZM18.2687 19.3285L17.7809 19.2186L18.2687 19.3285ZM18.0055 20.4969L18.4933 20.6068L18.0055 20.4969ZM17.3042 20.9468L17.4189 20.4601L17.3042 20.9468ZM16.1647 20.6781L16.05 21.1647L16.1647 20.6781ZM15.2185 20.793L15.4945 21.2099L15.2185 20.793ZM14.842 21.0423L15.118 21.4592L14.842 21.0423ZM14.4655 21.2915L14.1895 20.8746L14.4655 21.2915ZM13.6569 21.8771L13.3498 21.4826L13.6569 21.8771ZM12.7927 22.5498L13.0998 22.9443L12.7927 22.5498ZM11.9429 22.3452L11.5472 22.6507L11.9429 22.3452ZM11.5253 21.8042L11.921 21.4987L11.5253 21.8042ZM11.1076 21.2633L10.7118 21.5689L11.1076 21.2633ZM10.1594 21.0553L9.89363 20.6317L10.1594 21.0553ZM9.62878 21.3882L9.36305 20.9646L9.62878 21.3882ZM9.0982 21.7211L8.83246 21.2975L9.0982 21.7211ZM7.12048 21.7222L7.2322 21.2349L7.12048 21.7222ZM6.27302 21.2784L5.93594 21.6477L6.27302 21.2784ZM5.90793 20.9452L5.57086 21.3145L5.90793 20.9452ZM5.54284 20.6119L5.87991 20.2426L5.54284 20.6119ZM5.04043 19.7555L5.52405 19.6286L5.04043 19.7555ZM4.76579 18.7091L4.28217 18.836L4.76579 18.7091ZM4.47878 17.7724L4.9489 17.6022L4.47878 17.7724ZM4.1794 16.9457L4.64953 16.7754L4.1794 16.9457ZM3.43314 16.3438L3.58381 15.867L3.43314 16.3438ZM2.24001 15.9667L2.08935 16.4435L2.24001 15.9667ZM1.1484 14.9048L1.58338 14.6583L1.1484 14.9048ZM0.900885 14.4682L0.465905 14.7147L0.900885 14.4682ZM1.16494 13.5041L1.52384 13.8522L1.16494 13.5041ZM2.18809 12.4493L1.8292 12.1012L2.18809 12.4493ZM2.10737 11.4516L2.41829 11.06L2.10737 11.4516ZM0.922768 10.511L0.611845 10.9026L0.922768 10.511ZM0.568013 9.58643L0.124941 9.35473L0.568013 9.58643ZM1.0431 8.67795L0.600032 8.44624L1.0431 8.67795ZM1.44166 7.76965L1.91291 7.93676L1.44166 7.76965ZM1.76369 6.86155L1.29244 6.69444L1.76369 6.86155ZM3.3667 5.67386L3.13997 5.22822L3.3667 5.67386ZM4.02307 4.98944L3.55875 4.80396L4.02307 4.98944ZM4.19878 4.54957L3.73446 4.3641L4.19878 4.54957ZM5.04842 3.58566L4.96512 3.09265L5.04842 3.58566ZM5.54663 3.50149L5.62993 3.9945L5.54663 3.50149ZM6.04485 3.41731L5.96156 2.9243L6.04485 3.41731ZM6.85096 3.00538L6.48654 2.66304L6.85096 3.00538ZM7.15886 2.67762L7.52328 3.01996L7.15886 2.67762ZM7.46675 2.34987L7.10233 2.00753L7.46675 2.34987ZM8.88855 1.07231L8.56413 0.691842L8.88855 1.07231ZM11.5713 0.624257L11.7536 0.158682L11.5713 0.624257ZM12.0264 0.802484L11.8441 1.26806L12.0264 0.802484ZM12.4815 0.980711L12.6639 0.515135L12.4815 0.980711ZM13.319 1.42733L13.0317 1.83656L13.319 1.42733ZM13.7013 1.69572L13.4141 2.10496L13.7013 1.69572ZM14.0837 1.96411L14.3709 1.55488V1.55488L14.0837 1.96411ZM15.0797 1.86451L14.8226 1.43569L15.0797 1.86451ZM15.6935 1.49651L15.9506 1.92533L15.6935 1.49651ZM18.0294 4.11427L17.7695 4.54144L18.0294 4.11427ZM18.3792 4.32708L18.6391 3.89991L18.3792 4.32708ZM19.3181 4.61788L19.2525 5.11355L19.3181 4.61788ZM19.9072 4.69587L19.9729 4.2002L19.9072 4.69587ZM21.5439 5.68788L21.1055 5.9283L21.5439 5.68788ZM22.0155 7.01271L22.5153 6.99924L22.0155 7.01271ZM22.0419 7.99034L22.5417 7.97687L22.0419 7.99034ZM21.8675 8.94761L21.4033 8.76176L21.8675 8.94761ZM21.4924 9.88453L21.9565 10.0704L21.4924 9.88453ZM21.6791 10.875L22.0854 10.5837L21.6791 10.875ZM21.8662 11.1361L21.4598 11.4274L21.8662 11.1361ZM22.613 11.8645L23.1068 11.7857L22.613 11.8645ZM22.6875 12.3319L22.1938 12.4106L22.2683 12.878L22.7621 12.7992L23.2558 12.7205L23.1813 12.2531L22.6875 12.3319ZM22.7621 12.7992L22.2683 12.878C22.2763 12.9283 22.2683 12.955 22.254 12.9801C22.2348 13.0138 22.1848 13.075 22.061 13.1494L22.3186 13.5779L22.5761 14.0065C22.7977 13.8734 22.9943 13.7009 23.1229 13.4751C23.2565 13.2406 23.2975 12.9818 23.2558 12.7205L22.7621 12.7992ZM22.3186 13.5779L22.061 13.1494L21.543 13.4607L21.8005 13.8892L22.058 14.3178L22.5761 14.0065L22.3186 13.5779ZM21.8005 13.8892L21.543 13.4607L21.0249 13.772L21.2824 14.2005L21.54 14.6291L22.058 14.3178L21.8005 13.8892ZM21.2824 14.2005L21.0249 13.772C20.7808 13.9186 20.5728 14.1281 20.4746 14.4171C20.3768 14.7047 20.4127 14.9977 20.5126 15.2637L20.9807 15.088L21.4488 14.9122C21.4045 14.7942 21.4186 14.7472 21.4214 14.739C21.4237 14.7321 21.4387 14.69 21.54 14.6291L21.2824 14.2005ZM20.9807 15.088L20.5126 15.2637L20.729 15.8399L21.197 15.6641L21.6651 15.4884L21.4488 14.9122L20.9807 15.088ZM21.197 15.6641L20.729 15.8399L20.9453 16.416L21.4134 16.2403L21.8815 16.0645L21.6651 15.4884L21.197 15.6641ZM21.4134 16.2403L20.9453 16.416C20.9688 16.4787 20.9752 16.5177 20.9765 16.5367C20.9776 16.5539 20.9743 16.5478 20.9816 16.5297C20.9896 16.51 21.0012 16.4983 21.0041 16.4959C21.0045 16.4956 20.9895 16.5078 20.945 16.5231L21.1076 16.9959L21.2702 17.4688C21.5301 17.3794 21.786 17.2079 21.9086 16.9048C22.0256 16.6155 21.9758 16.3157 21.8815 16.0645L21.4134 16.2403ZM21.1076 16.9959L20.945 16.5231L20.4229 16.7027L20.5856 17.1755L20.7482 17.6483L21.2702 17.4688L21.1076 16.9959ZM20.5856 17.1755L20.4229 16.7027L19.9009 16.8822L20.0635 17.3551L20.2261 17.8279L20.7482 17.6483L20.5856 17.1755ZM20.0635 17.3551L19.9009 16.8822C19.5004 17.02 19.1533 17.2173 18.8924 17.4939L19.2561 17.837L19.6198 18.1801C19.7393 18.0535 19.9305 17.9295 20.2261 17.8279L20.0635 17.3551ZM19.2561 17.837L18.8924 17.4939L18.6071 17.7963L18.9708 18.1394L19.3345 18.4825L19.6198 18.1801L19.2561 17.837ZM18.9708 18.1394L18.6071 17.7963L18.3219 18.0988L18.6856 18.4419L19.0493 18.785L19.3345 18.4825L18.9708 18.1394ZM18.6856 18.4419L18.3219 18.0988C18.0488 18.3882 17.8802 18.778 17.7809 19.2186L18.2687 19.3285L18.7565 19.4384C18.8327 19.1 18.9419 18.8988 19.0493 18.785L18.6856 18.4419ZM18.2687 19.3285L17.7809 19.2186L17.6493 19.8028L18.1371 19.9127L18.6249 20.0226L18.7565 19.4384L18.2687 19.3285ZM18.1371 19.9127L17.6493 19.8028L17.5177 20.3871L18.0055 20.4969L18.4933 20.6068L18.6249 20.0226L18.1371 19.9127ZM18.0055 20.4969L17.5177 20.3871C17.5044 20.4462 17.4898 20.4764 17.4828 20.4881C17.4771 20.4977 17.4795 20.4902 17.4944 20.4807C17.5096 20.4709 17.5195 20.4708 17.5127 20.4715C17.5031 20.4724 17.4739 20.4731 17.4189 20.4601L17.3042 20.9468L17.1894 21.4334C17.4568 21.4965 17.7637 21.496 18.0343 21.3224C18.3024 21.1504 18.4332 20.8735 18.4933 20.6068L18.0055 20.4969ZM17.3042 20.9468L17.4189 20.4601L16.8492 20.3258L16.7345 20.8124L16.6197 21.2991L17.1894 21.4334L17.3042 20.9468ZM16.7345 20.8124L16.8492 20.3258L16.2795 20.1914L16.1647 20.6781L16.05 21.1647L16.6197 21.2991L16.7345 20.8124ZM16.1647 20.6781L16.2795 20.1914C15.8073 20.0801 15.3401 20.1129 14.9425 20.3761L15.2185 20.793L15.4945 21.2099C15.5989 21.1408 15.7625 21.097 16.05 21.1647L16.1647 20.6781ZM15.2185 20.793L14.9425 20.3761L14.566 20.6254L14.842 21.0423L15.118 21.4592L15.4945 21.2099L15.2185 20.793ZM14.842 21.0423L14.566 20.6254L14.1895 20.8746L14.4655 21.2915L14.7415 21.7085L15.118 21.4592L14.842 21.0423ZM14.4655 21.2915L14.1895 20.8746C13.9259 21.0491 13.6459 21.2521 13.3498 21.4826L13.6569 21.8771L13.964 22.2717C14.244 22.0537 14.5031 21.8663 14.7415 21.7085L14.4655 21.2915ZM13.6569 21.8771L13.3498 21.4826L12.9177 21.8189L13.2248 22.2134L13.5319 22.608L13.964 22.2717L13.6569 21.8771ZM13.2248 22.2134L12.9177 21.8189L12.4856 22.1552L12.7927 22.5498L13.0998 22.9443L13.5319 22.608L13.2248 22.2134ZM12.7927 22.5498L12.4856 22.1552C12.4539 22.1799 12.4406 22.1822 12.4458 22.1808C12.4543 22.1784 12.4688 22.1777 12.4812 22.1807C12.4908 22.183 12.4825 22.1836 12.4561 22.1634C12.4288 22.1426 12.3889 22.1046 12.3387 22.0396L11.9429 22.3452L11.5472 22.6507C11.719 22.8733 11.9476 23.0807 12.2472 23.1529C12.5734 23.2314 12.869 23.124 13.0998 22.9443L12.7927 22.5498ZM11.9429 22.3452L12.3387 22.0396L11.921 21.4987L11.5253 21.8042L11.1295 22.1098L11.5472 22.6507L11.9429 22.3452ZM11.5253 21.8042L11.921 21.4987L11.5034 20.9577L11.1076 21.2633L10.7118 21.5689L11.1295 22.1098L11.5253 21.8042ZM11.1076 21.2633L11.5034 20.9577C11.3213 20.7219 11.0806 20.5208 10.7689 20.4524C10.4487 20.3822 10.1479 20.4722 9.89363 20.6317L10.1594 21.0553L10.4251 21.4788C10.4759 21.447 10.5101 21.4352 10.5287 21.4309C10.5451 21.4272 10.5518 21.4286 10.5546 21.4292C10.5589 21.4302 10.6155 21.4441 10.7118 21.5689L11.1076 21.2633ZM10.1594 21.0553L9.89363 20.6317L9.36305 20.9646L9.62878 21.3882L9.89451 21.8117L10.4251 21.4788L10.1594 21.0553ZM9.62878 21.3882L9.36305 20.9646L8.83246 21.2975L9.0982 21.7211L9.36393 22.1446L9.89451 21.8117L9.62878 21.3882ZM9.0982 21.7211L8.83246 21.2975C8.55971 21.4686 8.3571 21.4927 8.19696 21.456L8.08524 21.9434L7.97351 22.4307C8.45654 22.5415 8.92924 22.4173 9.36393 22.1446L9.0982 21.7211ZM8.08524 21.9434L8.19696 21.456L7.71458 21.3454L7.60286 21.8328L7.49114 22.3201L7.97351 22.4307L8.08524 21.9434ZM7.60286 21.8328L7.71458 21.3454L7.2322 21.2349L7.12048 21.7222L7.00876 22.2096L7.49114 22.3201L7.60286 21.8328ZM7.12048 21.7222L7.2322 21.2349C6.99455 21.1804 6.78972 21.0731 6.61009 20.9091L6.27302 21.2784L5.93594 21.6477C6.2431 21.9281 6.60324 22.1166 7.00876 22.2096L7.12048 21.7222ZM6.27302 21.2784L6.61009 20.9091L6.245 20.5759L5.90793 20.9452L5.57086 21.3145L5.93594 21.6477L6.27302 21.2784ZM5.90793 20.9452L6.245 20.5759L5.87991 20.2426L5.54284 20.6119L5.20577 20.9812L5.57086 21.3145L5.90793 20.9452ZM5.54284 20.6119L5.87991 20.2426C5.71438 20.0916 5.59353 19.8933 5.52405 19.6286L5.04043 19.7555L4.55681 19.8824C4.67042 20.3153 4.88451 20.688 5.20577 20.9812L5.54284 20.6119ZM5.04043 19.7555L5.52405 19.6286L5.38673 19.1053L4.90311 19.2323L4.41949 19.3592L4.55681 19.8824L5.04043 19.7555ZM4.90311 19.2323L5.38673 19.1053L5.24941 18.5821L4.76579 18.7091L4.28217 18.836L4.41949 19.3592L4.90311 19.2323ZM4.76579 18.7091L5.24941 18.5821C5.15485 18.2219 5.05486 17.8948 4.9489 17.6022L4.47878 17.7724L4.00865 17.9427C4.10228 18.2013 4.19362 18.4986 4.28217 18.836L4.76579 18.7091ZM4.47878 17.7724L4.9489 17.6022L4.79922 17.1888L4.32909 17.3591L3.85896 17.5293L4.00865 17.9427L4.47878 17.7724ZM4.32909 17.3591L4.79922 17.1888L4.64953 16.7754L4.1794 16.9457L3.70927 17.1159L3.85896 17.5293L4.32909 17.3591ZM4.1794 16.9457L4.64953 16.7754C4.4769 16.2987 4.06371 16.0187 3.58381 15.867L3.43314 16.3438L3.28248 16.8205C3.598 16.9202 3.68231 17.0415 3.70927 17.1159L4.1794 16.9457ZM3.43314 16.3438L3.58381 15.867L2.98724 15.6785L2.83658 16.1552L2.68591 16.632L3.28248 16.8205L3.43314 16.3438ZM2.83658 16.1552L2.98724 15.6785L2.39068 15.4899L2.24001 15.9667L2.08935 16.4435L2.68591 16.632L2.83658 16.1552ZM2.24001 15.9667L2.39068 15.4899C2.08237 15.3925 1.91924 15.2508 1.8309 15.0949L1.39592 15.3415L0.960944 15.5881C1.20263 16.0145 1.60223 16.2895 2.08935 16.4435L2.24001 15.9667ZM1.39592 15.3415L1.8309 15.0949L1.58338 14.6583L1.1484 14.9048L0.713425 15.1514L0.960944 15.5881L1.39592 15.3415ZM1.1484 14.9048L1.58338 14.6583L1.33587 14.2216L0.900885 14.4682L0.465905 14.7147L0.713425 15.1514L1.1484 14.9048ZM0.900885 14.4682L1.33587 14.2216C1.31823 14.1905 1.31646 14.1735 1.32538 14.1409C1.3391 14.0908 1.38635 13.994 1.52384 13.8522L1.16494 13.5041L0.806048 13.156C0.602488 13.3658 0.435201 13.6055 0.360902 13.8767C0.281801 14.1655 0.318527 14.4547 0.465905 14.7147L0.900885 14.4682ZM1.16494 13.5041L1.52384 13.8522L2.03541 13.3248L1.67652 12.9767L1.31762 12.6286L0.806048 13.156L1.16494 13.5041ZM1.67652 12.9767L2.03541 13.3248L2.54699 12.7975L2.18809 12.4493L1.8292 12.1012L1.31762 12.6286L1.67652 12.9767ZM2.18809 12.4493L2.54699 12.7975C2.77001 12.5675 2.95172 12.2622 2.92207 11.8959C2.89282 11.5343 2.66896 11.2591 2.41829 11.06L2.10737 11.4516L1.79645 11.8432C1.94064 11.9577 1.92767 12.0055 1.92533 11.9765C1.9226 11.9427 1.94723 11.9795 1.8292 12.1012L2.18809 12.4493ZM2.10737 11.4516L2.41829 11.06L1.82599 10.5897L1.51507 10.9813L1.20415 11.3729L1.79645 11.8432L2.10737 11.4516ZM1.51507 10.9813L1.82599 10.5897L1.23369 10.1194L0.922768 10.511L0.611845 10.9026L1.20415 11.3729L1.51507 10.9813ZM0.922768 10.511L1.23369 10.1194C1.07227 9.99124 1.01922 9.90329 1.00474 9.86558C1.00161 9.8574 1.00061 9.85247 1.00027 9.85038C0.999955 9.8484 1.00001 9.84761 1.00003 9.84731C1.00005 9.84698 1.00018 9.84505 1.00138 9.84096C1.00262 9.83674 1.00531 9.82918 1.01109 9.81814L0.568013 9.58643L0.124941 9.35473C-0.0180775 9.62821 -0.0414616 9.93042 0.0711137 10.2238C0.174894 10.4943 0.378401 10.7172 0.611845 10.9026L0.922768 10.511ZM0.568013 9.58643L1.01109 9.81814L1.24863 9.36389L0.805559 9.13219L0.362486 8.90049L0.124941 9.35473L0.568013 9.58643ZM0.805559 9.13219L1.24863 9.36389L1.48618 8.90965L1.0431 8.67795L0.600032 8.44624L0.362486 8.90049L0.805559 9.13219ZM1.0431 8.67795L1.48618 8.90965C1.65475 8.5873 1.79723 8.26299 1.91291 7.93676L1.44166 7.76965L0.970416 7.60254C0.871417 7.88172 0.748186 8.16294 0.600032 8.44624L1.0431 8.67795ZM1.44166 7.76965L1.91291 7.93676L2.07392 7.48271L1.60268 7.3156L1.13143 7.14849L0.970416 7.60254L1.44166 7.76965ZM1.60268 7.3156L2.07392 7.48271L2.23494 7.02866L1.76369 6.86155L1.29244 6.69444L1.13143 7.14849L1.60268 7.3156ZM1.76369 6.86155L2.23494 7.02866C2.29422 6.86148 2.41104 6.72105 2.63209 6.60859L2.40537 6.16295L2.17864 5.71731C1.75881 5.93091 1.44784 6.25621 1.29244 6.69444L1.76369 6.86155ZM2.40537 6.16295L2.63209 6.60859L3.11276 6.36404L2.88603 5.9184L2.65931 5.47276L2.17864 5.71731L2.40537 6.16295ZM2.88603 5.9184L3.11276 6.36404L3.59342 6.1195L3.3667 5.67386L3.13997 5.22822L2.65931 5.47276L2.88603 5.9184ZM3.3667 5.67386L3.59342 6.1195C4.00603 5.90958 4.31901 5.59645 4.4874 5.17492L4.02307 4.98944L3.55875 4.80396C3.49285 4.96893 3.36826 5.11207 3.13997 5.22822L3.3667 5.67386ZM4.02307 4.98944L4.4874 5.17492L4.66311 4.73505L4.19878 4.54957L3.73446 4.3641L3.55875 4.80396L4.02307 4.98944ZM4.19878 4.54957L4.66311 4.73505L4.83882 4.29518L4.37449 4.1097L3.91016 3.92423L3.73446 4.3641L4.19878 4.54957ZM4.37449 4.1097L4.83882 4.29518C4.88621 4.17655 4.95763 4.10808 5.13171 4.07867L5.04842 3.58566L4.96512 3.09265C4.47492 3.17547 4.09705 3.45637 3.91016 3.92423L4.37449 4.1097ZM5.04842 3.58566L5.13171 4.07867L5.62993 3.9945L5.54663 3.50149L5.46334 3.00847L4.96512 3.09265L5.04842 3.58566ZM5.54663 3.50149L5.62993 3.9945L6.12815 3.91032L6.04485 3.41731L5.96156 2.9243L5.46334 3.00847L5.54663 3.50149ZM6.04485 3.41731L6.12815 3.91032C6.55396 3.83838 6.92622 3.65554 7.21539 3.34772L6.85096 3.00538L6.48654 2.66304C6.36518 2.79223 6.20003 2.88401 5.96156 2.9243L6.04485 3.41731ZM6.85096 3.00538L7.21539 3.34772L7.52328 3.01996L7.15886 2.67762L6.79443 2.33528L6.48654 2.66304L6.85096 3.00538ZM7.15886 2.67762L7.52328 3.01996L7.83117 2.6922L7.46675 2.34987L7.10233 2.00753L6.79443 2.33528L7.15886 2.67762ZM7.46675 2.34987L7.83117 2.6922C8.0228 2.48821 8.23568 2.28608 8.47036 2.08598L8.14594 1.70551L7.82153 1.32504C7.56114 1.54707 7.32122 1.77451 7.10233 2.00753L7.46675 2.34987ZM8.14594 1.70551L8.47036 2.08598L8.84166 1.76938L8.51725 1.38891L8.19283 1.00844L7.82153 1.32504L8.14594 1.70551ZM8.51725 1.38891L8.84166 1.76938L9.21296 1.45278L8.88855 1.07231L8.56413 0.691842L8.19283 1.00844L8.51725 1.38891ZM8.88855 1.07231L9.21296 1.45278C9.39418 1.29825 9.58967 1.2076 9.8062 1.17147L9.72392 0.678289L9.64165 0.185104C9.23941 0.252208 8.87798 0.424229 8.56413 0.691842L8.88855 1.07231ZM9.72392 0.678289L9.8062 1.17147L10.2703 1.09405L10.188 0.600869L10.1057 0.107685L9.64165 0.185104L9.72392 0.678289ZM10.188 0.600869L10.2703 1.09405L10.7344 1.01663L10.6521 0.52345L10.5698 0.0302657L10.1057 0.107685L10.188 0.600869ZM10.6521 0.52345L10.7344 1.01663C10.9511 0.980474 11.1662 1.0026 11.389 1.08983L11.5713 0.624257L11.7536 0.158682C11.3695 0.00827622 10.9718 -0.0367998 10.5698 0.0302657L10.6521 0.52345ZM11.5713 0.624257L11.389 1.08983L11.8441 1.26806L12.0264 0.802484L12.2087 0.336909L11.7536 0.158682L11.5713 0.624257ZM12.0264 0.802484L11.8441 1.26806L12.2992 1.44629L12.4815 0.980711L12.6639 0.515135L12.2087 0.336909L12.0264 0.802484ZM12.4815 0.980711L12.2992 1.44629C12.5673 1.55125 12.8109 1.68157 13.0317 1.83656L13.319 1.42733L13.6063 1.0181C13.3173 0.815235 13.0027 0.647811 12.6639 0.515135L12.4815 0.980711ZM13.319 1.42733L13.0317 1.83656L13.4141 2.10496L13.7013 1.69572L13.9886 1.28649L13.6063 1.0181L13.319 1.42733ZM13.7013 1.69572L13.4141 2.10496L13.7964 2.37335L14.0837 1.96411L14.3709 1.55488L13.9886 1.28649L13.7013 1.69572ZM14.0837 1.96411L13.7964 2.37335C14.2917 2.72107 14.8601 2.57918 15.3369 2.29333L15.0797 1.86451L14.8226 1.43569C14.656 1.53558 14.5423 1.56907 14.4741 1.57589C14.4182 1.58148 14.3929 1.57031 14.3709 1.55488L14.0837 1.96411ZM15.0797 1.86451L15.3369 2.29333L15.9506 1.92533L15.6935 1.49651L15.4364 1.06769L14.8226 1.43569L15.0797 1.86451ZM15.6935 1.49651L15.9506 1.92533L16.5643 1.55733L16.3072 1.12851L16.0501 0.699686L15.4364 1.06769L15.6935 1.49651ZM16.3072 1.12851L16.5643 1.55733C16.5989 1.53659 16.626 1.52318 16.646 1.51481C16.6558 1.51069 16.6633 1.50806 16.6685 1.50644C16.6737 1.50482 16.6761 1.50434 16.6761 1.50435C16.676 1.50436 16.6731 1.50492 16.6675 1.50522C16.6619 1.50552 16.6536 1.50555 16.6431 1.50444C16.621 1.50211 16.5941 1.49525 16.5664 1.48121C16.539 1.46726 16.5192 1.45042 16.5066 1.43678C16.4948 1.42389 16.4915 1.41625 16.4935 1.42012C16.4955 1.42413 16.5012 1.43676 16.5081 1.4613C16.5149 1.48566 16.5219 1.51861 16.528 1.56169L17.0232 1.49255L17.5184 1.42341C17.4799 1.14785 17.3719 0.768922 17.0197 0.589824C16.6572 0.405506 16.2879 0.557118 16.0501 0.699686L16.3072 1.12851ZM17.0232 1.49255L16.528 1.56169L16.6302 2.29372L17.1254 2.22458L17.6206 2.15544L17.5184 1.42341L17.0232 1.49255ZM17.1254 2.22458L16.6302 2.29372L16.7324 3.02576L17.2276 2.95662L17.7228 2.88748L17.6206 2.15544L17.1254 2.22458ZM17.2276 2.95662L16.7324 3.02576C16.8055 3.54978 16.9855 4.06446 17.4197 4.32864L17.6796 3.90147L17.9395 3.4743C17.9073 3.45474 17.7859 3.33952 17.7228 2.88748L17.2276 2.95662ZM17.6796 3.90147L17.4197 4.32864L17.7695 4.54144L18.0294 4.11427L18.2893 3.68711L17.9395 3.4743L17.6796 3.90147ZM18.0294 4.11427L17.7695 4.54144L18.1194 4.75425L18.3792 4.32708L18.6391 3.89991L18.2893 3.68711L18.0294 4.11427ZM18.3792 4.32708L18.1194 4.75425C18.4323 4.94463 18.8195 5.05623 19.2525 5.11355L19.3181 4.61788L19.3838 4.1222C19.0313 4.07554 18.7925 3.99327 18.6391 3.89991L18.3792 4.32708ZM19.3181 4.61788L19.2525 5.11355L19.8416 5.19155L19.9072 4.69587L19.9729 4.2002L19.3838 4.1222L19.3181 4.61788ZM19.9072 4.69587L19.8416 5.19155L20.4307 5.26954L20.4963 4.77387L20.562 4.27819L19.9729 4.2002L19.9072 4.69587ZM20.4963 4.77387L20.4307 5.26954C20.709 5.30638 20.8188 5.40555 20.8762 5.51029L21.3147 5.26987L21.7531 5.02945C21.5049 4.57685 21.0691 4.34534 20.562 4.27819L20.4963 4.77387ZM21.3147 5.26987L20.8762 5.51029L21.1055 5.9283L21.5439 5.68788L21.9823 5.44746L21.7531 5.02945L21.3147 5.26987ZM21.5439 5.68788L21.1055 5.9283L21.3347 6.3463L21.7731 6.10589L22.2115 5.86547L21.9823 5.44746L21.5439 5.68788ZM21.7731 6.10589L21.3347 6.3463C21.4483 6.55345 21.509 6.77764 21.5157 7.02618L22.0155 7.01271L22.5153 6.99924C22.5045 6.59603 22.4036 6.21567 22.2115 5.86547L21.7731 6.10589ZM22.0155 7.01271L21.5157 7.02618L21.5289 7.515L22.0287 7.50153L22.5285 7.48806L22.5153 6.99924L22.0155 7.01271ZM22.0287 7.50153L21.5289 7.515L21.542 8.00381L22.0419 7.99034L22.5417 7.97687L22.5285 7.48806L22.0287 7.50153ZM22.0419 7.99034L21.542 8.00381C21.5489 8.25932 21.5038 8.5107 21.4033 8.76176L21.8675 8.94761L22.3317 9.13346C22.4812 8.75991 22.5524 8.37312 22.5417 7.97687L22.0419 7.99034ZM21.8675 8.94761L21.4033 8.76176L21.2157 9.23022L21.6799 9.41607L22.1441 9.60192L22.3317 9.13346L21.8675 8.94761ZM21.6799 9.41607L21.2157 9.23022L21.0282 9.69868L21.4924 9.88453L21.9565 10.0704L22.1441 9.60192L21.6799 9.41607ZM21.4924 9.88453L21.0282 9.69868C20.8776 10.0747 20.8137 10.5262 21.0856 10.9053L21.4919 10.614L21.8983 10.3227C21.9049 10.332 21.8984 10.3332 21.8985 10.3014C21.8985 10.2627 21.9092 10.1886 21.9565 10.0704L21.4924 9.88453ZM21.4919 10.614L21.0856 10.9053L21.2727 11.1664L21.6791 10.875L22.0854 10.5837L21.8983 10.3227L21.4919 10.614ZM21.6791 10.875L21.2727 11.1664L21.4598 11.4274L21.8662 11.1361L22.2726 10.8448L22.0854 10.5837L21.6791 10.875ZM21.8662 11.1361L21.4598 11.4274C21.5339 11.5307 21.6183 11.6326 21.7139 11.7135C21.8 11.7864 21.9593 11.8971 22.1746 11.8971V11.3971V10.8971C22.2449 10.8971 22.2967 10.916 22.3239 10.9289C22.3505 10.9415 22.3625 10.9524 22.3599 10.9502C22.358 10.9486 22.3488 10.9404 22.3325 10.9217C22.3166 10.9034 22.2966 10.8783 22.2726 10.8448L21.8662 11.1361ZM22.1746 11.3971V11.8971H22.2959V11.3971V10.8971H22.1746V11.3971ZM22.2959 11.3971V11.8971H22.4172V11.3971V10.8971H22.2959V11.3971ZM22.4172 11.3971V11.8971C22.2588 11.8971 22.1547 11.8158 22.1102 11.7684C22.071 11.7266 22.0605 11.695 22.0656 11.7072C22.0749 11.7293 22.0962 11.7991 22.1192 11.9432L22.613 11.8645L23.1068 11.7857C23.0801 11.6183 23.0439 11.4544 22.9879 11.3207C22.9604 11.255 22.9153 11.165 22.8396 11.0843C22.7586 10.9979 22.616 10.8971 22.4172 10.8971V11.3971ZM22.613 11.8645L22.1192 11.9432L22.1938 12.4106L22.6875 12.3319L23.1813 12.2531L23.1068 11.7857L22.613 11.8645Z" fill="var(--stroke-0, #670F0F)"/>
</g>
</svg>
